<svg xmlns="http://www.w3.org/2000/svg" xmlns:xlink="http://www.w3.org/1999/xlink" width="619.19" height="603.322" viewBox="0 0 619.19 603.322"><defs><radialGradient id="a" cx="0.172" cy="1" r="1.105" gradientTransform="matrix(0.262, -0.965, 0.923, 0.25, -0.796, 0.916)" gradientUnits="objectBoundingBox"><stop offset="0" stop-color="#f0c"/><stop offset="1" stop-color="#7373dd"/></radialGradient></defs><g transform="translate(-90 -106)"><path d="M309.595,0C480.579,0,619.19,128.27,619.19,286.5S480.579,573,309.595,573c-34.416,0-63.376-1.644-94.51-11.312-15.4-4.781-99.963,48.222-113.071,40.947-12.322-6.839,9.93-103.995,0-113.441C39.517,437.028,0,370.985,0,286.5,0,128.27,138.61,0,309.595,0Z" transform="translate(90 106)" fill="url(#a)"/><path d="M329.345,660.463" fill="none" stroke="#707070" stroke-width="1"/><path d="M0,0S95.183,84.134,180.52,84.134,361.04,0,361.04,0" transform="translate(219 495.313)" fill="none" stroke="#fff" stroke-linecap="round" stroke-width="40"/></g></svg>